Coordinates
version=1
nRows=21
nColumns=38
inDegrees=no

Units are S.I. units (second, meters, Newtons, ...)
If the header above contains a line with 'inDegrees', this indicates whether rotational values are in degrees (yes) or radians (no).

endheader
time	pelvis_tilt	pelvis_list	pelvis_rotation	pelvis_tx	pelvis_ty	pelvis_tz	hip_flexion_r	hip_adduction_r	hip_rotation_r	knee_angle_r	ankle_angle_r	subtalar_angle_r	mtp_angle_r	hip_flexion_l	hip_adduction_l	hip_rotation_l	knee_angle_l	ankle_angle_l	subtalar_angle_l	mtp_angle_l	lumbar_extension	lumbar_bending	lumbar_rotation	arm_flex_r	arm_add_r	arm_rot_r	elbow_flex_r	pro_sup_r	wrist_flex_r	wrist_dev_r	arm_flex_l	arm_add_l	arm_rot_l	elbow_flex_l	pro_sup_l	wrist_flex_l	wrist_dev_l
1.7	-0.0638594	0.00372724	-0.0275926	0.894715	1.01332	-0.339938	-0.0666135	0.0209072	-0.308728	-0.501153	0.20725	0.0572385	-0.00103051	0.691901	-0.133709	-0.254902	-1.8475	0.0922401	0.0383731	-0.00844347	-0.231618	0.0123616	0.190393	-0.295524	-0.294575	-0.0818878	2.22209	1.64688	0.0174779	0.0264633	-0.630645	-0.364723	-0.0522798	2.20707	1.66055	0.0183905	0.00885961
1.71	-0.0706819	0.0268427	-0.0240683	0.898059	1.01936	-0.340115	-0.139309	-0.00282654	-0.323217	-0.425975	0.089614	0.0572385	-0.00103051	0.728697	-0.111512	-0.273304	-1.76512	0.0934999	0.0383731	-0.00844347	-0.212161	-0.0170641	0.20782	-0.306547	-0.292976	-0.0639377	2.26294	1.65943	0.0174779	0.0264633	-0.668595	-0.353076	-0.068296	2.22411	1.64597	0.0183905	0.00885961
1.72	-0.0774317	0.0477643	-0.0188483	0.901655	1.02529	-0.340546	-0.206095	-0.0246344	-0.343124	-0.359133	-0.0330743	0.0572385	-0.00103051	0.757532	-0.0889643	-0.290371	-1.67171	0.0916761	0.0383731	-0.00844347	-0.192735	-0.0437044	0.22213	-0.320094	-0.290438	-0.0459685	2.30182	1.67362	0.0174779	0.0264633	-0.706967	-0.338861	-0.0855708	2.24157	1.63201	0.0183905	0.00885961
1.73	-0.08381	0.0650507	-0.0122103	0.905208	1.03087	-0.341222	-0.264817	-0.0431561	-0.366529	-0.306868	-0.150658	0.0572385	-0.00103051	0.77848	-0.0666658	-0.304407	-1.56839	0.0866566	0.0383731	-0.00844347	-0.17451	-0.0659999	0.233732	-0.334887	-0.287585	-0.0284144	2.33736	1.68818	0.0174779	0.0264633	-0.744409	-0.322355	-0.103523	2.25826	1.61862	0.0183905	0.00885961
1.74	-0.0893643	0.077561	-0.00456155	0.908477	1.03595	-0.342082	-0.314214	-0.0575117	-0.391122	-0.274421	-0.253735	0.0572385	-0.00103051	0.791419	-0.0454991	-0.314543	-1.45616	0.0782744	0.0383731	-0.00844347	-0.158555	-0.0827769	0.242917	-0.349669	-0.285005	-0.01156	2.36832	1.70184	0.0174779	0.0264633	-0.779616	-0.303928	-0.121646	2.27325	1.60587	0.0183905	0.00885961
1.75	-0.0935407	0.0847164	0.00361154	0.91131	1.04043	-0.343025	-0.353962	-0.067567	-0.414744	-0.265476	-0.335063	0.0572385	-0.00103051	0.796077	-0.02637	-0.320871	-1.33609	0.0663091	0.0383731	-0.00844347	-0.145791	-0.0935297	0.249914	-0.363414	-0.283086	0.0043122	2.39363	1.71364	0.0174779	0.0264633	-0.811339	-0.284144	-0.139509	2.28589	1.59398	0.0183905	0.00885961
1.76	-0.0957722	0.0866583	0.011817	0.913644	1.04428	-0.343948	-0.384555	-0.0740477	-0.435919	-0.281831	-0.390497	0.0572385	-0.00103051	0.79218	-0.00990545	-0.32432	-1.20958	0.0505314	0.0383731	-0.00844347	-0.136975	-0.0985632	0.255091	-0.375645	-0.281853	0.0186333	2.41259	1.72311	0.0174779	0.0264633	-0.838288	-0.263899	-0.156594	2.29578	1.5832	0.0183905	0.00885961
1.77	-0.0956441	0.0843315	0.0196553	0.915501	1.04745	-0.344769	-0.407018	-0.0785165	-0.454169	-0.323353	-0.419242	0.0572385	-0.00103051	0.779704	0.00384463	-0.326376	-1.07857	0.0307772	0.0383731	-0.00844347	-0.132514	-0.0990654	0.258655	-0.386206	-0.281046	0.0308365	2.42465	1.73015	0.0174779	0.0264633	-0.859413	-0.244199	-0.172523	2.30274	1.57387	0.0183905	0.00885961
1.78	-0.0930145	0.0793365	0.0268832	0.916956	1.0499	-0.345443	-0.422577	-0.0830904	-0.469892	-0.388215	-0.423381	0.0572385	-0.00103051	0.7591	0.0154764	-0.328637	-0.945713	0.00710573	0.0383731	-0.00844347	-0.132387	-0.0969056	0.260592	-0.395198	-0.280211	0.040446	2.42941	1.73494	0.0174779	0.0264633	-0.873991	-0.226045	-0.187073	2.30671	1.56632	0.0183905	0.00885961
1.79	-0.0880334	0.0735735	0.0334297	0.918091	1.05155	-0.345964	-0.432379	-0.0899596	-0.483878	-0.473362	-0.406916	0.0572385	-0.00103051	0.731439	0.0260469	-0.332356	-0.814577	-0.0200093	0.0383731	-0.00844347	-0.136228	-0.0942099	0.260869	-0.403077	-0.278779	0.0469449	2.4268	1.73793	0.0174779	0.0264633	-0.881545	-0.210453	-0.199989	2.30772	1.56077	0.0183905	0.00885961
1.8	-0.0811633	0.068892	0.0393769	0.918971	1.05233	-0.346352	-0.437221	-0.100914	-0.496757	-0.575037	-0.374726	0.0572385	-0.00103051	0.698447	0.0367735	-0.338147	-0.689516	-0.0495776	0.0383731	-0.00844347	-0.143291	-0.0929767	0.259238	-0.410289	-0.276298	0.0500919	2.41688	1.73959	0.0174779	0.0264633	-0.881993	-0.19819	-0.211142	2.30575	1.55731	0.0183905	0.00885961
1.81	-0.0730928	0.0667192	0.044902	0.919637	1.05217	-0.346633	-0.437414	-0.116941	-0.5086	-0.689304	-0.331676	0.0572385	-0.00103051	0.662375	0.0486577	-0.345847	-0.57544	-0.0800371	0.0383731	-0.00844347	-0.152579	-0.0946767	0.255304	-0.417152	-0.272565	0.0499574	2.39985	1.74031	0.0174779	0.0264633	-0.875609	-0.189681	-0.220517	2.30075	1.55593	0.0183905	0.00885961
1.82	-0.0645757	0.067761	0.0502001	0.92009	1.05104	-0.346847	-0.432809	-0.138024	-0.518845	-0.812469	-0.282052	0.0572385	-0.00103051	0.625728	0.0621836	-0.354538	-0.477442	-0.109234	0.0383731	-0.00844347	-0.163143	-0.099955	0.248844	-0.42401	-0.267609	0.0466539	2.37623	1.74052	0.0174779	0.0264633	-0.862797	-0.185148	-0.228019	2.29258	1.55655	0.0183905	0.00885961
1.83	-0.0563601	0.0720035	0.0554576	0.920299	1.04893	-0.347025	-0.422896	-0.163254	-0.526542	-0.941304	-0.229336	0.0572385	-0.00103051	0.590914	0.0772736	-0.36275	-0.400207	-0.134503	0.0383731	-0.00844347	-0.174201	-0.10863	0.239687	-0.431028	-0.261723	0.0404352	2.34668	1.74059	0.0174779	0.0264633	-0.84408	-0.18451	-0.233587	2.28102	1.55902	0.0183905	0.00885961
1.84	-0.0489668	0.0788777	0.060839	0.920197	1.04584	-0.347208	-0.406966	-0.191094	-0.530701	-1.07312	-0.176211	0.0572385	-0.00103051	0.559927	0.0933997	-0.368744	-0.34748	-0.152752	0.0383731	-0.00844347	-0.185292	-0.119824	0.227815	-0.438295	-0.255338	0.0315138	2.31198	1.74092	0.0174779	0.0264633	-0.819945	-0.187524	-0.237109	2.26583	1.56324	0.0183905	0.00885961
1.85	-0.0426879	0.0875136	0.0664995	0.919715	1.0418	-0.347426	-0.384264	-0.219773	-0.530574	-1.20571	-0.124701	0.0572385	-0.00103051	0.534091	0.109872	-0.370919	-0.321556	-0.160698	0.0383731	-0.00844347	-0.196233	-0.132338	0.213066	-0.445575	-0.248982	0.0202777	2.27281	1.74194	0.0174779	0.0264633	-0.790926	-0.19369	-0.238624	2.24685	1.56908	0.0183905	0.00885961
1.86	-0.0375957	0.0969882	0.0725818	0.918795	1.03684	-0.347705	-0.354086	-0.247595	-0.525766	-1.33719	-0.0763365	0.0572385	-0.00103051	0.513954	0.126054	-0.368165	-0.323015	-0.155181	0.0383731	-0.00844347	-0.207091	-0.144959	0.195123	-0.452357	-0.24316	0.00726463	2.22965	1.74409	0.0174779	0.0264633	-0.757568	-0.202345	-0.238306	2.22407	1.57631	0.0183905	0.00885961
1.87	-0.0335924	0.106466	0.0791936	0.917381	1.031	-0.348047	-0.315844	-0.273123	-0.516216	-1.46586	-0.0322429	0.0572385	-0.00103051	0.499301	0.14145	-0.360089	-0.350615	-0.133641	0.0383731	-0.00844347	-0.218144	-0.156624	0.173773	-0.458166	-0.23818	-0.00708101	2.18293	1.74773	0.0174779	0.0264633	-0.720277	-0.212903	-0.236251	2.19779	1.58452	0.0183905	0.00885961
1.88	-0.0305341	0.115258	0.0863806	0.915428	1.02438	-0.348417	-0.26905	-0.295265	-0.502152	-1.59005	0.00682448	0.0572385	-0.00103051	0.489222	0.155674	-0.347053	-0.401196	-0.0948066	0.0383731	-0.00844347	-0.229638	-0.166515	0.148874	-0.462551	-0.234178	-0.0222671	2.13307	1.75307	0.0174779	0.0264633	-0.679445	-0.224817	-0.23255	2.16872	1.5931	0.0183905	0.00885961
1.89	-0.02832	0.122763	0.0941018	0.912879	1.01724	-0.348745	-0.213351	-0.313238	-0.484052	-1.70793	0.040539	0.0572385	-0.00103051	0.482206	0.168308	-0.329967	-0.46972	-0.0392992	0.0383731	-0.00844347	-0.241642	-0.173981	0.120565	-0.465331	-0.23109	-0.0378756	2.08065	1.76003	0.0174779	0.0264633	-0.635426	-0.237667	-0.227153	2.13802	1.60126	0.0183905	0.00885961
1.9	-0.0269706	0.128406	0.102228	0.909721	1.01006	-0.348946	-0.148587	-0.32652	-0.462652	-1.81746	0.0690305	0.0572385	-0.00103051	0.476233	0.178791	-0.309981	-0.549466	0.030053	0.0383731	-0.00844347	-0.253815	-0.178492	0.089119	-0.466487	-0.228811	-0.0533172	2.02646	1.76812	0.0174779	0.0264633	-0.588775	-0.251004	-0.220049	2.10734	1.60815	0.0183905	0.00885961
